<svg xmlns="http://www.w3.org/2000/svg" viewBox="0 0 261.42 14.48"><defs><style>.cls-1{fill:#fff;}</style></defs><title>txt1</title><g id="Layer_2" data-name="Layer 2"><g id="Layer_1-2" data-name="Layer 1"><path class="cls-1" d="M0,14.36V.12H9.1V2.06H2.16V6.22H8.08V8.14H2.16v4.28H9.1v1.94Z"/><path class="cls-1" d="M19.26,14.36,16.16,8.9l-3.08,5.46H10.6L15,7.06,10.88.12h2.48l2.8,5.1L19,.12h2.48L17.34,7.06l4.42,7.3Z"/><path class="cls-1" d="M28.42,14.48A5.16,5.16,0,0,1,24.68,13c-1.4-1.4-1.38-3-1.38-5.72s0-4.32,1.38-5.72A5.16,5.16,0,0,1,28.42,0,4.9,4.9,0,0,1,33.5,4.38H31.3a2.94,2.94,0,0,0-5-1.58c-.7.76-.86,1.58-.86,4.44s.16,3.68.86,4.44a2.85,2.85,0,0,0,2.1.86,2.88,2.88,0,0,0,2.9-2.44H33.5A4.92,4.92,0,0,1,28.42,14.48Z"/><path class="cls-1" d="M36.58,14.36V.12h2.16V14.36Z"/><path class="cls-1" d="M47.48,2.06v12.3H45.32V2.06H41.4V.12h10V2.06Z"/><path class="cls-1" d="M54.06,14.36V.12h2.16V14.36Z"/><path class="cls-1" d="M68.88,14.36l-6.58-10v10H60.14V.12h2l6.58,10V.12h2.16V14.36Z"/><path class="cls-1" d="M83.3,12.86a5.46,5.46,0,0,1-7.66.1c-1.4-1.4-1.38-3-1.38-5.72s0-4.32,1.38-5.72A5.09,5.09,0,0,1,79.38,0a5,5,0,0,1,5.18,4.42H82.38a2.91,2.91,0,0,0-3-2.48,2.86,2.86,0,0,0-2.1.88c-.7.76-.86,1.56-.86,4.42s.16,3.68.86,4.44a2.85,2.85,0,0,0,2.1.86,3,3,0,0,0,2.32-1,3.22,3.22,0,0,0,.72-2.24V8.5h-3V6.66h5.2V8.84A5.33,5.33,0,0,1,83.3,12.86Z"/><path class="cls-1" d="M100.94,14.36l-1-2.86H94.34l-1,2.86h-2.3L96.28.12H98l5.22,14.24Zm-3.74-11L95,9.66h4.38Z"/><path class="cls-1" d="M114.14,13a5.08,5.08,0,0,1-3.68,1.34h-5V.12h5a5.08,5.08,0,0,1,3.68,1.34c1.54,1.54,1.44,3.62,1.44,5.68S115.68,11.48,114.14,13ZM112.66,3a3.08,3.08,0,0,0-2.42-1h-2.62V12.42h2.62a3.08,3.08,0,0,0,2.42-1c.74-.82.76-2.36.76-4.32S113.4,3.84,112.66,3Z"/><path class="cls-1" d="M123.38,14.36H121.7L117,.12h2.24l3.28,10.36L125.82.12h2.28Z"/><path class="cls-1" d="M130.26,14.36V.12h9.1V2.06h-6.94V6.22h5.92V8.14h-5.92v4.28h6.94v1.94Z"/><path class="cls-1" d="M151.26,14.36l-6.58-10v10h-2.16V.12h2l6.58,10V.12h2.16V14.36Z"/><path class="cls-1" d="M162,2.06v12.3h-2.16V2.06H155.9V.12h10V2.06Z"/><path class="cls-1" d="M173.44,14.48a4.83,4.83,0,0,1-5.1-4.92V.12h2.16V9.46a3,3,0,1,0,5.9,0V.12h2.16V9.56A4.84,4.84,0,0,1,173.44,14.48Z"/><path class="cls-1" d="M190.12,14.36l-3-6h-2.7v6h-2.16V.12h5.52a4.07,4.07,0,0,1,4.42,4.16,3.74,3.74,0,0,1-2.84,3.78l3.28,6.3Zm-2.5-12.3h-3.2V6.52h3.2A2.17,2.17,0,0,0,190,4.3,2.18,2.18,0,0,0,187.62,2.06Z"/><path class="cls-1" d="M195.56,14.36V.12h9.1V2.06h-6.94V6.22h5.92V8.14h-5.92v4.28h6.94v1.94Z"/><path class="cls-1" d="M211.6,14.48a6.45,6.45,0,0,1-5-1.88L208,11.18a4.7,4.7,0,0,0,3.64,1.36c1.86,0,2.94-.8,2.94-2.18A1.92,1.92,0,0,0,214,8.88a2.47,2.47,0,0,0-1.56-.6L210.78,8a4.87,4.87,0,0,1-2.7-1.14,3.54,3.54,0,0,1-1-2.72C207,1.7,208.84,0,211.8,0a5.93,5.93,0,0,1,4.42,1.62L214.84,3a4.18,4.18,0,0,0-3.1-1.1c-1.68,0-2.6,1-2.6,2.22a1.69,1.69,0,0,0,.54,1.32,3.18,3.18,0,0,0,1.6.66l1.62.24a4.71,4.71,0,0,1,2.66,1.06,3.73,3.73,0,0,1,1.16,2.92C216.72,12.92,214.58,14.48,211.6,14.48Z"/><path class="cls-1" d="M228.4,14.48a6.48,6.48,0,0,1-5.05-1.88l1.45-1.42a4.7,4.7,0,0,0,3.64,1.36c1.86,0,2.94-.8,2.94-2.18a1.92,1.92,0,0,0-.56-1.48,2.47,2.47,0,0,0-1.56-.6L227.58,8a4.87,4.87,0,0,1-2.7-1.14,3.55,3.55,0,0,1-1-2.72c0-2.48,1.81-4.18,4.77-4.18A5.93,5.93,0,0,1,233,1.62L231.64,3a4.18,4.18,0,0,0-3.1-1.1c-1.68,0-2.6,1-2.6,2.22a1.69,1.69,0,0,0,.54,1.32,3.18,3.18,0,0,0,1.6.66l1.62.24a4.71,4.71,0,0,1,2.66,1.06,3.73,3.73,0,0,1,1.16,2.92C233.52,12.92,231.38,14.48,228.4,14.48Z"/><path class="cls-1" d="M236.61,14.36V.12h9.11V2.06h-6.94V6.22h5.92V8.14h-5.92v4.28h6.94v1.94Z"/><path class="cls-1" d="M248.48,14.36V12h2.34v2.34Zm5.3,0V12h2.34v2.34Zm5.3,0V12h2.34v2.34Z"/></g></g></svg>