<svg xmlns="http://www.w3.org/2000/svg" viewBox="0 0 120.47 6.21"><defs><style>.cls-1{fill:#fff;}</style></defs><title>txt1</title><g id="Layer_2" data-name="Layer 2"><g id="Layer_1-2" data-name="Layer 1"><path class="cls-1" d="M2.16,6.21A2.76,2.76,0,0,1,0,5.4l.62-.61a2,2,0,0,0,1.56.59c.8,0,1.26-.35,1.26-.94a.82.82,0,0,0-.24-.63,1,1,0,0,0-.67-.26l-.72-.1A2.1,2.1,0,0,1,.65,3,1.52,1.52,0,0,1,.21,1.79,1.8,1.8,0,0,1,2.25,0,2.57,2.57,0,0,1,4.14.69l-.59.59A1.79,1.79,0,0,0,2.22.81c-.72,0-1.11.41-1.11,1a.69.69,0,0,0,.23.56A1.38,1.38,0,0,0,2,2.61l.7.1a2.09,2.09,0,0,1,1.14.45,1.63,1.63,0,0,1,.5,1.26C4.36,5.54,3.44,6.21,2.16,6.21Z"/><path class="cls-1" d="M7.75.88V6.16H6.83V.88H5.15V.05H9.43V.88Z"/><path class="cls-1" d="M12.67,6.21A2.07,2.07,0,0,1,10.48,4.1v-4h.93v4a1.2,1.2,0,0,0,1.26,1.32,1.22,1.22,0,0,0,1.27-1.32v-4h.92V4.1A2.08,2.08,0,0,1,12.67,6.21Z"/><path class="cls-1" d="M20.2,6.16l-2.82-4.3v4.3h-.93V.05h.85l2.82,4.29V.05h.93V6.16Z"/><path class="cls-1" d="M26.48,6.16l-2.82-4.3v4.3h-.93V.05h.85L26.4,4.34V.05h.93V6.16Z"/><path class="cls-1" d="M29,6.16V.05h.92V6.16Z"/><path class="cls-1" d="M35.36,6.16l-2.82-4.3v4.3h-.93V.05h.85l2.83,4.29V.05h.92V6.16Z"/><path class="cls-1" d="M41.55,5.51a2.34,2.34,0,0,1-3.29,0c-.6-.6-.59-1.28-.59-2.46s0-1.85.59-2.45A2.18,2.18,0,0,1,39.87,0a2.15,2.15,0,0,1,2.22,1.9h-.94A1.25,1.25,0,0,0,39.87.83a1.23,1.23,0,0,0-.9.38c-.3.33-.37.67-.37,1.89S38.67,4.68,39,5a1.22,1.22,0,0,0,.9.37,1.3,1.3,0,0,0,1-.43,1.41,1.41,0,0,0,.31-1V3.64h-1.3V2.86H42.1v.93A2.28,2.28,0,0,1,41.55,5.51Z"/><path class="cls-1" d="M45.6,6.16V.05h3.91V.88h-3V2.67h2.54v.82H46.53V5.33h3v.83Z"/><path class="cls-1" d="M53.86,6.16,52.53,3.82,51.21,6.16H50.15L52,3l-1.77-3h1.06l1.2,2.19L53.74.05h1.07L53,3l1.9,3.13Z"/><path class="cls-1" d="M58.22,3.76H56.83v2.4h-.92V.05h2.31a1.82,1.82,0,0,1,2,1.85A1.82,1.82,0,0,1,58.22,3.76Zm0-2.88H56.83v2h1.34a1,1,0,0,0,1.08-1A1,1,0,0,0,58.17.88Z"/><path class="cls-1" d="M61.39,6.16V.05h3.9V.88h-3V2.67h2.54v.82H62.31V5.33h3v.83Z"/><path class="cls-1" d="M70,6.16,68.73,3.58H67.57V6.16h-.93V.05H69a1.75,1.75,0,0,1,1.9,1.78,1.62,1.62,0,0,1-1.22,1.63l1.4,2.7ZM68.94.88H67.57V2.8h1.37a.94.94,0,0,0,1-1A.94.94,0,0,0,68.94.88Z"/><path class="cls-1" d="M72.35,6.16V.05h.92V6.16Z"/><path class="cls-1" d="M75,6.16V.05h3.9V.88h-3V2.67h2.54v.82H75.88V5.33h3v.83Z"/><path class="cls-1" d="M84,6.16l-2.82-4.3v4.3h-.93V.05h.85l2.82,4.29V.05h.93V6.16Z"/><path class="cls-1" d="M88.46,6.21a2.21,2.21,0,0,1-1.6-.65c-.6-.6-.59-1.28-.59-2.46s0-1.85.59-2.45A2.21,2.21,0,0,1,88.46,0a2.1,2.1,0,0,1,2.18,1.88H89.7a1.26,1.26,0,0,0-2.14-.68c-.3.33-.37.68-.37,1.9s.07,1.58.37,1.91a1.27,1.27,0,0,0,2.15-.68h.93A2.1,2.1,0,0,1,88.46,6.21Z"/><path class="cls-1" d="M92,6.16V.05h3.91V.88h-3V2.67h2.54v.82H92.89V5.33h3v.83Z"/><path class="cls-1" d="M98.84,6.21a2.76,2.76,0,0,1-2.16-.81l.62-.61a2,2,0,0,0,1.56.59c.8,0,1.26-.35,1.26-.94a.82.82,0,0,0-.24-.63,1,1,0,0,0-.67-.26l-.72-.1A2.1,2.1,0,0,1,97.33,3a1.52,1.52,0,0,1-.44-1.17,1.8,1.8,0,0,1,2-1.79,2.57,2.57,0,0,1,1.89.69l-.59.59A1.79,1.79,0,0,0,98.9.81c-.72,0-1.11.41-1.11,1a.72.72,0,0,0,.23.56,1.37,1.37,0,0,0,.69.29l.69.1a2.06,2.06,0,0,1,1.14.45,1.63,1.63,0,0,1,.5,1.26C101,5.54,100.12,6.21,98.84,6.21Z"/><path class="cls-1" d="M106.05,6.21a2.76,2.76,0,0,1-2.16-.81l.61-.61a2,2,0,0,0,1.56.59c.8,0,1.26-.35,1.26-.94a.79.79,0,0,0-.24-.63,1,1,0,0,0-.66-.26l-.72-.1A2.07,2.07,0,0,1,104.54,3a1.52,1.52,0,0,1-.45-1.17,1.8,1.8,0,0,1,2-1.79,2.59,2.59,0,0,1,1.9.69l-.59.59a1.8,1.8,0,0,0-1.33-.47c-.72,0-1.12.41-1.12,1a.72.72,0,0,0,.23.56,1.46,1.46,0,0,0,.69.29l.69.1a2.09,2.09,0,0,1,1.15.45,1.63,1.63,0,0,1,.49,1.26C108.24,5.54,107.32,6.21,106.05,6.21Z"/><path class="cls-1" d="M109.57,6.16V.05h3.9V.88h-3V2.67H113v.82H110.5V5.33h3v.83Z"/><path class="cls-1" d="M114.66,6.16v-1h1v1Z"/><path class="cls-1" d="M117,6.16v-1h1v1Z"/><path class="cls-1" d="M119.43,6.16v-1h1v1Z"/></g></g></svg>