<svg xmlns="http://www.w3.org/2000/svg" viewBox="0 0 221.6 14.48"><defs><style>.cls-1{fill:#fff;}</style></defs><title>txt2</title><g id="Layer_2" data-name="Layer 2"><g id="Layer_1-2" data-name="Layer 1"><path class="cls-1" d="M6.08,2.06v12.3H3.92V2.06H0V.12H10V2.06Z"/><path class="cls-1" d="M20.62,13a5.14,5.14,0,0,1-3.76,1.52A5.09,5.09,0,0,1,13.12,13c-1.4-1.4-1.38-3-1.38-5.72s0-4.32,1.38-5.72A5.09,5.09,0,0,1,16.86,0a5.14,5.14,0,0,1,3.76,1.52C22,2.92,22,4.5,22,7.24S22,11.56,20.62,13ZM19,2.82a3,3,0,0,0-4.24,0c-.7.76-.84,1.56-.84,4.42s.14,3.66.84,4.42a3,3,0,0,0,4.24,0c.7-.76.84-1.56.84-4.42S19.68,3.58,19,2.82Z"/><path class="cls-1" d="M29.8,2.06v12.3H27.64V2.06H23.72V.12h10V2.06Z"/><path class="cls-1" d="M43.36,14.36l-1-2.86H36.76l-1,2.86h-2.3L38.7.12h1.74l5.22,14.24Zm-3.74-11L37.4,9.66h4.38Z"/><path class="cls-1" d="M47.88,14.36V.12H50v12.3H56.9v1.94Z"/><path class="cls-1" d="M72.22,14.36l-3-6h-2.7v6H64.36V.12h5.52A4.07,4.07,0,0,1,74.3,4.28a3.74,3.74,0,0,1-2.84,3.78l3.28,6.3Zm-2.5-12.3h-3.2V6.52h3.2A2.17,2.17,0,0,0,72.14,4.3,2.18,2.18,0,0,0,69.72,2.06Z"/><path class="cls-1" d="M77.66,14.36V.12h9.1V2.06H79.82V6.22h5.92V8.14H79.82v4.28h6.94v1.94Z"/><path class="cls-1" d="M89.92,14.36V.12h2.16v12.3h6.86v1.94Z"/><path class="cls-1" d="M109.78,14.36l-1-2.86h-5.62l-1,2.86H99.9L105.12.12h1.74l5.22,14.24ZM106,3.34l-2.22,6.32h4.38Z"/><path class="cls-1" d="M121.3,14.36,118.2,8.9l-3.08,5.46h-2.48l4.4-7.3L112.92.12h2.48l2.8,5.1L121,.12h2.48l-4.12,6.94,4.42,7.3Z"/><path class="cls-1" d="M134.24,14.36l-1-2.86h-5.62l-1,2.86h-2.3L129.58.12h1.74l5.22,14.24Zm-3.74-11-2.22,6.32h4.38Z"/><path class="cls-1" d="M142.38,2.06v12.3h-2.16V2.06H136.3V.12h10V2.06Z"/><path class="cls-1" d="M149,14.36V.12h2.16V14.36Z"/><path class="cls-1" d="M163.4,13a5.39,5.39,0,0,1-7.5,0c-1.4-1.4-1.38-3-1.38-5.72s0-4.32,1.38-5.72a5.39,5.39,0,0,1,7.5,0c1.4,1.4,1.36,3,1.36,5.72S164.8,11.56,163.4,13ZM161.76,2.82a3,3,0,0,0-4.24,0c-.7.76-.84,1.56-.84,4.42s.14,3.66.84,4.42a3,3,0,0,0,4.24,0c.7-.76.84-1.56.84-4.42S162.46,3.58,161.76,2.82Z"/><path class="cls-1" d="M176.9,14.36l-6.58-10v10h-2.16V.12h2l6.58,10V.12h2.16V14.36Z"/><path class="cls-1" d="M192.42,2.06v12.3h-2.16V2.06h-3.92V.12h10V2.06Z"/><path class="cls-1" d="M206,14.36l-1-2.86h-5.62l-1,2.86h-2.3L201.32.12h1.74l5.22,14.24Zm-3.74-11L200,9.66h4.38Z"/><path class="cls-1" d="M219.06,14.36l-4-7-2.4,2.88v4.14H210.5V.12h2.16V7.28L218.48.12h2.64L216.5,5.7l5.1,8.66Z"/></g></g></svg>