<svg xmlns="http://www.w3.org/2000/svg" viewBox="0 0 94.4 6.21"><defs><style>.cls-1{fill:#fff;}</style></defs><title>txt2</title><g id="Layer_2" data-name="Layer 2"><g id="Layer_1-2" data-name="Layer 1"><path class="cls-1" d="M2.19,6.21A2.07,2.07,0,0,1,0,4.1v-4H.93v4A1.2,1.2,0,0,0,2.19,5.38,1.22,1.22,0,0,0,3.46,4.06v-4h.92V4.1A2.08,2.08,0,0,1,2.19,6.21Z"/><path class="cls-1" d="M9.72,6.16,6.9,1.86v4.3H6V.05h.85L9.64,4.34V.05h.93V6.16Z"/><path class="cls-1" d="M12.25,6.16V.05h.92V5.33h3v.83Z"/><path class="cls-1" d="M17.26,6.16V.05h.92V6.16Z"/><path class="cls-1" d="M24.32,6.16V2.08l-1.4,3h-.69l-1.44-3V6.16h-.93V.05h.93l1.78,3.8L24.32.05h.93V6.16Z"/><path class="cls-1" d="M26.92,6.16V.05h.93V6.16Z"/><path class="cls-1" d="M31.6.88V6.16h-.93V.88H29V.05h4.29V.88Z"/><path class="cls-1" d="M34.42,6.16V.05h3.9V.88h-3V2.67h2.53v.82H35.35V5.33h3v.83Z"/><path class="cls-1" d="M43.4,5.58a2.17,2.17,0,0,1-1.58.58H39.68V.05h2.14A2.17,2.17,0,0,1,43.4.63,3.15,3.15,0,0,1,44,3.06,3.37,3.37,0,0,1,43.4,5.58Zm-.63-4.29a1.35,1.35,0,0,0-1-.41H40.6V5.33h1.13a1.32,1.32,0,0,0,1-.42,3,3,0,0,0,.32-1.85C43.09,2.22,43.08,1.65,42.77,1.29Z"/><path class="cls-1" d="M49.16,6.21A2.8,2.8,0,0,1,47,5.4l.62-.61a2,2,0,0,0,1.56.59c.8,0,1.26-.35,1.26-.94a.79.79,0,0,0-.24-.63,1,1,0,0,0-.67-.26l-.72-.1A2.07,2.07,0,0,1,47.65,3a1.52,1.52,0,0,1-.45-1.17,1.8,1.8,0,0,1,2-1.79,2.59,2.59,0,0,1,1.9.69l-.6.59A1.77,1.77,0,0,0,49.22.81c-.73,0-1.12.41-1.12,1a.72.72,0,0,0,.23.56,1.42,1.42,0,0,0,.69.29l.69.1a2,2,0,0,1,1.14.45,1.6,1.6,0,0,1,.5,1.26C51.35,5.54,50.43,6.21,49.16,6.21Z"/><path class="cls-1" d="M57.14,6.16V2.08l-1.41,3h-.68l-1.44-3V6.16h-.93V.05h.93l1.78,3.8L57.14.05h.93V6.16Z"/><path class="cls-1" d="M59.74,6.16V.05h.93V6.16Z"/><path class="cls-1" d="M62.35,6.16V.05h.92V5.33h2.94v.83Z"/><path class="cls-1" d="M67.36,6.16V.05h3.9V.88h-3V2.67h2.54v.82H68.28V5.33h3v.83Z"/><path class="cls-1" d="M74.23,6.21a2.79,2.79,0,0,1-2.16-.81l.62-.61a2,2,0,0,0,1.56.59c.8,0,1.26-.35,1.26-.94a.79.79,0,0,0-.24-.63,1,1,0,0,0-.67-.26l-.72-.1A2.07,2.07,0,0,1,72.73,3a1.52,1.52,0,0,1-.45-1.17,1.8,1.8,0,0,1,2-1.79,2.59,2.59,0,0,1,1.9.69l-.6.59A1.78,1.78,0,0,0,74.29.81c-.72,0-1.11.41-1.11,1a.72.72,0,0,0,.23.56,1.42,1.42,0,0,0,.69.29l.69.1a2,2,0,0,1,1.14.45,1.6,1.6,0,0,1,.5,1.26C76.43,5.54,75.51,6.21,74.23,6.21Z"/><path class="cls-1" d="M81.89.88V6.16H81V.88H79.28V.05h4.29V.88Z"/><path class="cls-1" d="M87.7,6.16l-.42-1.23H84.87l-.42,1.23h-1L85.7.05h.75l2.24,6.11ZM86.1,1.43l-.95,2.71H87Z"/><path class="cls-1" d="M93.31,6.16l-1.72-3-1,1.23V6.16h-.93V.05h.93V3.12L93.06.05h1.13l-2,2.39L94.4,6.16Z"/></g></g></svg>